<svg width="120" height="80" viewBox="0 0 120 80" fill="none" xmlns="http://www.w3.org/2000/svg">
  <!-- Sleigh body -->
  <path d="M 20 40 Q 15 35 20 30 L 90 30 Q 95 30 95 35 L 95 50 Q 95 55 90 55 L 25 55 Q 20 55 20 50 Z" fill="#8B4513" stroke="#654321" stroke-width="2"/>
  
  <!-- Sleigh runners (front curved parts) -->
  <path d="M 15 55 Q 10 50 10 45 Q 10 42 12 40" stroke="#C0C0C0" stroke-width="3" fill="none" stroke-linecap="round"/>
  <path d="M 95 55 Q 100 52 105 48 Q 108 45 110 42" stroke="#C0C0C0" stroke-width="3" fill="none" stroke-linecap="round"/>
  
  <!-- Santa's sack -->
  <ellipse cx="70" cy="35" rx="15" ry="18" fill="#DC2626"/>
  <ellipse cx="70" cy="30" rx="12" ry="8" fill="#B91C1C"/>
  
  <!-- Gift boxes -->
  <rect x="40" y="35" width="12" height="12" fill="#22C55E" stroke="#166534" stroke-width="1"/>
  <line x1="46" y1="35" x2="46" y2="47" stroke="#FCD34D" stroke-width="2"/>
  <line x1="40" y1="41" x2="52" y2="41" stroke="#FCD34D" stroke-width="2"/>
  
  <rect x="55" y="38" width="10" height="10" fill="#3B82F6" stroke="#1E40AF" stroke-width="1"/>
  <line x1="60" y1="38" x2="60" y2="48" stroke="#F87171" stroke-width="2"/>
  
  <!-- Decorative stars -->
  <path d="M 30 20 L 32 25 L 37 25 L 33 28 L 35 33 L 30 30 L 25 33 L 27 28 L 23 25 L 28 25 Z" fill="#FCD34D"/>
  <path d="M 80 18 L 81 21 L 84 21 L 82 23 L 83 26 L 80 24 L 77 26 L 78 23 L 76 21 L 79 21 Z" fill="#FCD34D"/>
</svg>
